<svg width="25" height="20" viewBox="0 0 25 20" fill="none" xmlns="http://www.w3.org/2000/svg">
<g clip-path="url(#clip0_3_31)">
<path d="M15.625 3.75C16.1223 3.75 16.5992 3.55246 16.9508 3.20083C17.3025 2.84919 17.5 2.37228 17.5 1.875C17.5 1.37772 17.3025 0.900805 16.9508 0.549175C16.5992 0.197544 16.1223 0 15.625 0C15.1277 0 14.6508 0.197544 14.2992 0.549175C13.9475 0.900805 13.75 1.37772 13.75 1.875C13.75 2.37228 13.9475 2.84919 14.2992 3.20083C14.6508 3.55246 15.1277 3.75 15.625 3.75ZM16.6875 6.25L14.2734 4.34375C13.5977 3.8125 12.6445 3.80469 11.9648 4.33203L8.71875 6.83984C7.51953 7.76953 7.60547 9.60547 8.88672 10.418L11.25 11.918V16.25C11.25 16.9414 11.8086 17.5 12.5 17.5C13.1914 17.5 13.75 16.9414 13.75 16.25V11.25C13.75 10.832 13.543 10.4414 13.1953 10.2109L11.5234 9.09766L13.8789 7.20312L15.4688 8.47656C15.6914 8.65234 15.9648 8.75 16.25 8.75H18.75C19.4414 8.75 20 8.19141 20 7.5C20 6.80859 19.4414 6.25 18.75 6.25H16.6875ZM2.1875 15C2.1875 14.2541 2.48382 13.5387 3.01126 13.0113C3.53871 12.4838 4.25408 12.1875 5 12.1875C5.74592 12.1875 6.46129 12.4838 6.98874 13.0113C7.51618 13.5387 7.8125 14.2541 7.8125 15C7.8125 15.7459 7.51618 16.4613 6.98874 16.9887C6.46129 17.5162 5.74592 17.8125 5 17.8125C4.25408 17.8125 3.53871 17.5162 3.01126 16.9887C2.48382 16.4613 2.1875 15.7459 2.1875 15ZM10 15C10 13.6739 9.47322 12.4021 8.53553 11.4645C7.59785 10.5268 6.32608 10 5 10C3.67392 10 2.40215 10.5268 1.46447 11.4645C0.526784 12.4021 0 13.6739 0 15C0 16.3261 0.526784 17.5979 1.46447 18.5355C2.40215 19.4732 3.67392 20 5 20C6.32608 20 7.59785 19.4732 8.53553 18.5355C9.47322 17.5979 10 16.3261 10 15ZM17.1875 15C17.1875 14.2541 17.4838 13.5387 18.0113 13.0113C18.5387 12.4838 19.2541 12.1875 20 12.1875C20.7459 12.1875 21.4613 12.4838 21.9887 13.0113C22.5162 13.5387 22.8125 14.2541 22.8125 15C22.8125 15.7459 22.5162 16.4613 21.9887 16.9887C21.4613 17.5162 20.7459 17.8125 20 17.8125C19.2541 17.8125 18.5387 17.5162 18.0113 16.9887C17.4838 16.4613 17.1875 15.7459 17.1875 15ZM25 15C25 13.6739 24.4732 12.4021 23.5355 11.4645C22.5979 10.5268 21.3261 10 20 10C18.6739 10 17.4021 10.5268 16.4645 11.4645C15.5268 12.4021 15 13.6739 15 15C15 16.3261 15.5268 17.5979 16.4645 18.5355C17.4021 19.4732 18.6739 20 20 20C21.3261 20 22.5979 19.4732 23.5355 18.5355C24.4732 17.5979 25 16.3261 25 15Z" fill="#9CA3AF"/>
</g>
<defs>
<clipPath id="clip0_3_31">
<rect width="25" height="20" fill="white"/>
</clipPath>
</defs>
</svg>
