<svg width="24" height="21" viewBox="0 0 24 21" fill="none" xmlns="http://www.w3.org/2000/svg">
<g clip-path="url(#clip0_3_37)">
<path d="M17 4.92188C17 7.16133 13.9542 11.1521 12.6167 12.7969C12.2958 13.1906 11.7 13.1906 11.3833 12.7969C10.0458 11.1521 7 7.16133 7 4.92188C7 2.20254 9.2375 0 12 0C14.7625 0 17 2.20254 17 4.92188ZM17.3333 8.21953C17.4792 7.93652 17.6125 7.65352 17.7333 7.37461C17.7542 7.32539 17.775 7.27207 17.7958 7.22285L22.6292 5.31973C23.2875 5.06133 24 5.53711 24 6.23438V17.3414C24 17.7434 23.75 18.1043 23.3708 18.2561L17.3333 20.6309V8.21953ZM5.73333 5.67246C5.83333 6.25078 6.03333 6.8332 6.26667 7.37461C6.3875 7.65352 6.52083 7.93652 6.66667 8.21953V18.5309L1.37083 20.6186C0.7125 20.877 0 20.4012 0 19.7039V8.59688C0 8.19492 0.25 7.83398 0.629167 7.68223L5.7375 5.67246H5.73333ZM13.6583 13.6172C14.2375 12.9035 15.1458 11.7428 16 10.459V20.6842L8 18.4324V10.459C8.85417 11.7428 9.7625 12.9035 10.3417 13.6172C11.1958 14.6672 12.8042 14.6672 13.6583 13.6172ZM12 6.23438C12.442 6.23438 12.866 6.06152 13.1785 5.75385C13.4911 5.44617 13.6667 5.02887 13.6667 4.59375C13.6667 4.15863 13.4911 3.74133 13.1785 3.43365C12.866 3.12598 12.442 2.95312 12 2.95312C11.558 2.95312 11.134 3.12598 10.8215 3.43365C10.5089 3.74133 10.3333 4.15863 10.3333 4.59375C10.3333 5.02887 10.5089 5.44617 10.8215 5.75385C11.134 6.06152 11.558 6.23438 12 6.23438Z" fill="#9CA3AF"/>
</g>
<defs>
<clipPath id="clip0_3_37">
<rect width="24" height="21" fill="white"/>
</clipPath>
</defs>
</svg>
